<svg width="120" height="32" viewBox="0 0 120 32" fill="none" xmlns="http://www.w3.org/2000/svg">
<path d="M72.9655 22.0096C71.4193 20.4635 70.6463 18.5606 70.6463 16.2414C70.6463 13.9817 71.4193 12.0193 72.9655 10.4732C74.571 8.92712 76.4739 8.15407 78.7931 8.15407C81.1123 8.15407 83.0746 8.92712 84.6207 10.4732C86.1668 12.0193 86.9399 13.9222 86.9399 16.2414C86.9399 18.5011 86.1668 20.4635 84.6207 22.0096C83.0746 23.5557 81.1123 24.2693 78.7931 24.2693C76.4739 24.2693 74.5116 23.5557 72.9655 22.0096ZM78.8526 19.9283C79.8635 19.9283 80.7555 19.5715 81.4096 18.8579C82.0637 18.1443 82.48 17.2523 82.48 16.2414C82.48 15.171 82.1232 14.3385 81.4096 13.5654C80.696 12.8519 79.8635 12.4951 78.8526 12.4951C77.8416 12.4951 77.0091 12.8519 76.2955 13.5654C75.5819 14.279 75.2251 15.171 75.2251 16.2414C75.2251 17.3118 75.5819 18.1443 76.2955 18.8579C76.9496 19.5715 77.8416 19.9283 78.8526 19.9283Z" fill="white"/>
<path d="M56.6705 23.9078H52.6269L47.8101 8.62509H52.2701L54.6487 17.1287L57.0868 8.62509H61.1304L63.5685 17.0692L65.8877 8.62509H70.3476L65.5309 23.9078H61.4872L59.1681 15.8799L56.6705 23.9078Z" fill="white"/>
<path d="M88.9608 23.9072V3.33204C88.9608 1.4886 90.4475 0.00195943 92.2909 0.00195943H93.4207V23.9072H88.9608Z" fill="white"/>
<path d="M108.703 10.5289C107.216 8.98275 105.194 8.20969 103.232 8.20969C101.27 8.20969 99.3073 8.98275 97.7611 10.5289C96.2745 12.075 95.3825 14.0968 95.3825 16.1186C95.3825 18.1405 96.1556 20.1623 97.6422 21.7084C99.1289 23.2545 101.21 24.0276 103.232 24.0276H110.963V16.1781C110.963 14.0373 110.249 12.0155 108.703 10.5289ZM106.443 16.1781V19.865H103.351C102.281 19.865 101.389 19.1514 100.972 18.7351C100.318 17.9621 99.9614 17.0701 99.9614 16.1186C99.9614 15.1672 100.318 14.2157 100.972 13.5021C101.686 12.7886 102.459 12.4318 103.351 12.4318C104.243 12.4318 105.194 12.967 105.67 13.4427C105.967 13.7995 106.443 14.5725 106.443 16.1781Z" fill="white"/>
<path d="M7.25482 24.3289C5.17352 24.3289 3.44901 23.5559 2.0813 22.0692C0.713589 20.5231 0 18.6202 0 16.301C0 13.9819 0.713589 12.4358 2.0813 10.9491C3.50848 9.40302 5.23299 8.62997 7.25482 8.62997C8.8604 8.62997 15.8774 8.68943 15.8774 8.68943V24.5668C15.8774 26.7075 15.1043 28.4915 13.6177 29.8592C12.1905 31.2864 10.347 32 8.08734 32C7.96841 32 3.33008 32 3.33008 32V27.8374C3.33008 27.8374 7.90894 27.8374 8.02787 27.8374C9.03879 27.8374 9.87131 27.5401 10.5254 26.8859C11.1796 26.2913 11.5364 25.5182 11.5364 24.5668V22.8423C10.2281 23.8532 8.80093 24.3289 7.25482 24.3289ZM4.57886 16.301C4.57886 17.312 4.93566 18.2039 5.58978 18.8581C6.2439 19.5717 7.07642 19.9285 8.02787 19.9285C8.97933 19.9285 9.81184 19.5717 10.466 18.8581C11.1201 18.1445 11.4769 17.312 11.4769 16.301C11.4769 15.2307 11.4769 12.5547 11.4769 12.5547C11.4769 12.5547 9.03879 12.5547 8.08734 12.5547C7.13589 12.5547 6.30337 12.9115 5.64924 13.6251C4.93566 14.3981 4.57886 15.2901 4.57886 16.301Z" fill="white"/>
<path d="M33.8363 17.9052H22.4783C22.7162 18.7377 23.1919 19.2134 23.5487 19.4513C23.9055 19.6892 24.6785 20.1054 27.2356 20.1054C27.295 20.1054 33.7173 19.927 33.7173 19.927V23.9707C33.7173 23.9707 26.2246 23.9707 26.1652 23.9707C23.7865 23.9707 21.7647 23.5544 20.2186 22.0678C18.613 20.5217 17.84 18.6188 17.84 16.2996C17.84 14.0399 18.613 12.0776 20.1591 10.5314C21.7647 8.98534 23.6676 8.21228 25.9273 8.21228C28.187 8.21228 30.1494 8.98534 31.6955 10.5314C33.2416 12.0776 33.8957 13.9805 33.8957 16.2996C33.8363 16.9537 33.8363 17.9052 33.8363 17.9052ZM22.4188 14.5751H29.4358C29.1979 13.8021 28.7222 13.2074 28.0681 12.7317C27.414 12.256 26.7004 12.0181 25.8678 12.0181C25.0948 12.0181 24.3812 12.256 23.7271 12.7317C23.1324 13.2074 22.7162 13.8021 22.4188 14.5751Z" fill="white"/>
<path d="M48.1662 19.8074H43.1116C42.6359 19.8074 42.2196 19.629 41.9223 19.3317C41.6249 19.0344 41.4465 18.6181 41.4465 18.2018V12.4931H45.847L44.6577 8.62786H41.4465V5.65457H39.9004L34.9053 11.3038V12.4931H36.9866V19.0938C36.9866 20.4615 37.5218 21.6508 38.5327 22.5428C39.6031 23.4943 40.8519 23.9105 42.3385 23.9105H49.415L48.1662 19.8074Z" fill="white"/>
<path d="M115.007 0C113.996 0 112.926 0.41626 112.152 1.18931C111.379 1.96237 110.963 2.97328 110.963 4.04367C110.963 5.05458 111.379 6.0655 112.152 6.89802C112.926 7.67108 113.936 8.08734 115.007 8.08734C116.018 8.08734 117.029 7.67108 117.861 6.89802C118.634 6.12497 119.05 5.11405 119.05 4.04367V0.0594648L115.007 0Z" fill="white"/>
</svg>
