<svg width="24" height="24" viewBox="0 0 24 24" fill="none" xmlns="http://www.w3.org/2000/svg">
<path opacity="0.5" d="M6 12H4C4 16.4183 7.58172 20 12 20C16.4183 20 20 16.4183 20 12C20 7.58172 16.4183 4 12 4C10.0239 4 8.16539 4.72185 6.72902 5.98131L5.92244 5.41654C5.58587 5.18087 5.12449 5.42922 5.13584 5.83994L5.2342 9.3966C5.24346 9.73126 5.57258 9.96246 5.89054 9.85765L9.27731 8.7413C9.66819 8.61245 9.7447 8.09292 9.40757 7.85685L8.43287 7.17436C9.44759 6.42285 10.6885 6 12 6C15.3137 6 18 8.68629 18 12C18 15.3137 15.3137 18 12 18C8.68629 18 6 15.3137 6 12Z" fill="#9C9EB7"/>
<path fill-rule="evenodd" clip-rule="evenodd" d="M10.8904 7.84239C10.9144 7.53867 11.1679 7.30444 11.4725 7.30444C11.7719 7.30444 12.0228 7.53089 12.0534 7.82872L12.5329 12.4967L15.9836 14.4164C16.1581 14.5134 16.2662 14.6974 16.2662 14.897C16.2662 15.2581 15.9241 15.5212 15.5751 15.4286L10.9637 14.2042C10.637 14.1174 10.4189 13.8095 10.4456 13.4725L10.8904 7.84239Z" fill="#5B5C70"/>
</svg>
