<svg width="14" height="14" viewBox="0 0 14 14" fill="none" xmlns="http://www.w3.org/2000/svg">
<path d="M2.83672 9.26093L1.77565 5.15833C1.6094 4.54758 2.28958 4.0576 2.81575 4.40877L4.16674 5.30942C4.45665 5.50309 4.85097 5.39285 4.99972 5.07726L6.37873 2.14367C6.6249 1.61925 7.371 1.61927 7.61774 2.1431L9.00024 5.07783C9.14899 5.39342 9.54274 5.5025 9.83266 5.30942L11.1836 4.40877C11.7104 4.0576 12.3906 4.54817 12.2237 5.15833L11.1626 9.26093C11.0629 9.6471 10.7147 9.91659 10.3157 9.91659H3.68316C3.28475 9.91659 2.93647 9.6471 2.83672 9.26093ZM11.2291 11.6666C11.2291 11.4251 11.0331 11.2291 10.7916 11.2291H3.20832C2.96682 11.2291 2.77082 11.4251 2.77082 11.6666C2.77082 11.9081 2.96682 12.1041 3.20832 12.1041H10.7916C11.0331 12.1041 11.2291 11.9081 11.2291 11.6666Z" fill="#FFC107"/>
</svg>
