<svg width="14" height="14" viewBox="0 0 14 14" fill="none" xmlns="http://www.w3.org/2000/svg">
<path d="M11.375 8.16658C11.375 10.5787 9.41267 12.5416 7 12.5416C4.58733 12.5416 2.625 10.5787 2.625 8.16658C2.625 6.85525 2.9995 5.92133 3.87683 5.04341C4.04891 4.87075 4.24375 4.69807 4.44558 4.51957C5.27158 3.78807 6.125 3.03151 6.125 1.74934C6.125 1.64201 6.1845 1.54282 6.279 1.49207C6.3735 1.44132 6.48842 1.44659 6.57825 1.50667C6.61325 1.53 9.86708 3.76007 8.19875 7.5914C8.59016 7.37265 9.05859 7.0139 9.34617 6.45681C9.5305 6.09981 9.62441 5.69384 9.62441 5.24934C9.62441 5.13093 9.69617 5.02417 9.80583 4.97925C9.91433 4.93434 10.0409 4.96 10.1243 5.04459C10.9194 5.8525 11.375 6.99058 11.375 8.16658Z" fill="#FF5959"/>
</svg>
