<svg width="14" height="14" viewBox="0 0 14 14" fill="none" xmlns="http://www.w3.org/2000/svg">
<path d="M11.3499 6.29825C11.3032 6.19266 11.1988 6.125 11.0833 6.125H8.45833V1.75C8.45833 1.62925 8.38426 1.52075 8.27109 1.47759C8.15734 1.43384 8.03074 1.46533 7.94966 1.55458L2.69966 7.38791C2.62266 7.47366 2.60285 7.59617 2.6501 7.70175C2.69676 7.80733 2.80116 7.875 2.91666 7.875H5.54166V12.25C5.54166 12.3707 5.61574 12.4793 5.7289 12.5224C5.76332 12.5353 5.79833 12.5417 5.83333 12.5417C5.91441 12.5417 5.99375 12.5078 6.05034 12.4448L11.3003 6.6115C11.3773 6.52633 11.3966 6.40325 11.3499 6.29825Z" fill="#22BA59"/>
</svg>
