<svg width="20" height="20" viewBox="0 0 20 20" fill="none" xmlns="http://www.w3.org/2000/svg">
<path opacity="0.5" fill-rule="evenodd" clip-rule="evenodd" d="M5.83244 5.00021C4.45173 5.00021 3.33244 6.1195 3.33244 7.50021L3.33244 14.1669C3.33244 15.5476 4.45173 16.6669 5.83244 16.6669H12.4991C13.8798 16.6669 14.9991 15.5476 14.9991 14.1669V10.8335C14.9991 10.3733 15.3722 10.0002 15.8324 10.0002C16.2927 10.0002 16.6658 10.3733 16.6658 10.8335V14.1669C16.6658 16.4681 14.8003 18.3335 12.4991 18.3335H5.83244C3.53125 18.3335 1.66577 16.4681 1.66577 14.1669L1.66577 7.50021C1.66577 5.19902 3.53125 3.33354 5.83244 3.33354L9.16577 3.33354C9.62601 3.33354 9.99911 3.70664 9.99911 4.16688C9.99911 4.62711 9.62601 5.00021 9.16577 5.00021L5.83244 5.00021Z" fill="#9C9EB7"/>
<path d="M13.9534 4.92288L8.56605 10.3099C8.25565 10.6203 8.25565 11.1235 8.56605 11.4339C8.87645 11.7443 9.37971 11.7443 9.69011 11.4339L15.0769 6.04742V7.50006C15.0769 7.939 15.4328 8.29483 15.8718 8.29483C16.3107 8.29483 16.6666 7.939 16.6666 7.50006V4.1281C16.6666 3.68916 16.3107 3.33333 15.8718 3.33333L12.4996 3.33333C12.0606 3.33333 11.7048 3.68916 11.7048 4.1281C11.7048 4.56705 12.0606 4.92288 12.4996 4.92288L13.9534 4.92288Z" fill="#5B5C70"/>
</svg>
