<svg width="280" height="233" viewBox="0 0 280 233" fill="none" xmlns="http://www.w3.org/2000/svg">
<g filter="url(#filter0_i_2005_330)">
<path d="M246.592 -37.7461C251.259 -37.7461 255.069 -34.0813 255.303 -29.4727L255.326 -28.5742C255.56 -23.9656 259.37 -20.3008 264.037 -20.3008L289.937 -20.3008V-20.3477L338.999 -20.3477V28.6553H338.93C337.614 53.1148 317.365 72.543 292.577 72.543L257.892 72.543C245.712 72.5427 235.838 62.6691 235.838 50.4893V40.4473C235.838 33.8131 230.459 28.4346 223.825 28.4346C217.191 28.4348 211.813 33.8133 211.813 40.4473L211.813 63.8408C211.813 73.1018 204.306 80.6094 195.045 80.6094H193.128C184.926 80.6094 178.276 87.2587 178.276 95.4609C178.276 103.663 184.926 110.313 193.128 110.313H215.039C226.515 110.313 235.818 119.616 235.818 131.092V144.235C235.819 148.452 239.237 151.871 243.454 151.871C247.671 151.871 251.091 148.453 251.091 144.235V134.668C251.091 125.167 258.793 117.465 268.294 117.465H309.214C320.4 117.465 329.468 126.533 329.468 137.719C329.468 148.904 320.361 157.971 309.176 157.972C297.947 157.972 288.805 167.075 288.805 178.304V192.452C288.805 207.084 276.943 218.945 262.312 218.945H242.176C238.665 218.945 235.818 221.792 235.818 225.303C235.818 228.814 238.665 231.66 242.176 231.66H285.036C296.625 231.66 306.021 241.055 306.021 252.645C306.021 264.234 296.625 273.629 285.036 273.629H240.102C231.791 273.629 225.03 266.997 224.82 258.737L224.811 257.948C224.601 249.688 217.84 243.057 209.529 243.057H193.154C184.8 243.056 178.028 236.284 178.027 227.93C178.027 219.575 171.254 212.802 162.899 212.802L116.903 212.802C97.3869 212.801 81.5657 196.98 81.5654 177.464L81.5654 157.577C81.5654 149.176 88.2693 142.341 96.6191 142.13L97.416 142.12C105.766 141.909 112.47 135.074 112.47 126.673V125.428C112.47 116.206 119.945 108.73 129.167 108.73H134.973C142.738 108.73 149.033 102.435 149.033 94.6699C149.033 86.9045 142.738 80.6094 134.973 80.6094H132.943C124.057 80.6094 116.854 73.4057 116.854 64.5195V49.6035C116.854 32.4795 130.735 18.5977 147.859 18.5977H175.898C191.457 18.5977 204.07 5.98468 204.07 -9.57422V-12.124C204.07 -26.2747 215.542 -37.7461 229.692 -37.7461H246.592ZM306.222 171.961C310.841 171.961 314.586 175.706 314.586 180.325C314.586 184.944 310.841 188.688 306.222 188.688H305.921C301.302 188.688 297.558 184.944 297.558 180.325C297.558 175.706 301.302 171.961 305.921 171.961H306.222ZM172.267 114.235C169.085 114.235 166.506 116.815 166.506 119.996V136.364C166.506 139.546 169.085 142.125 172.267 142.125C175.448 142.125 178.027 139.546 178.027 136.364V119.996C178.027 116.815 175.448 114.235 172.267 114.235ZM18.7334 37.4492C38.9339 37.4492 55.3096 53.8249 55.3096 74.0254C55.3096 94.2258 38.9339 110.602 18.7334 110.602H0.576172C-19.6243 110.602 -36 94.2258 -36 74.0254C-36 53.8249 -19.6243 37.4492 0.576172 37.4492L18.7334 37.4492ZM174.951 -45.7227C186.229 -45.7227 195.372 -36.5796 195.372 -25.3018C195.372 -14.0241 186.229 -4.88184 174.951 -4.88184L134.587 -4.88184C123.309 -4.8821 114.167 -14.0243 114.167 -25.3018C114.167 -36.5795 123.309 -45.7224 134.587 -45.7227L174.951 -45.7227Z" fill="#FF5959"/>
</g>
<defs>
<filter id="filter0_i_2005_330" x="-36" y="-45.7227" width="374.999" height="320.348" filterUnits="userSpaceOnUse" color-interpolation-filters="sRGB">
<feFlood flood-opacity="0" result="BackgroundImageFix"/>
<feBlend mode="normal" in="SourceGraphic" in2="BackgroundImageFix" result="shape"/>
<feColorMatrix in="SourceAlpha" type="matrix" values="0 0 0 0 0 0 0 0 0 0 0 0 0 0 0 0 0 0 127 0" result="hardAlpha"/>
<feOffset dy="0.99634"/>
<feGaussianBlur stdDeviation="5"/>
<feComposite in2="hardAlpha" operator="arithmetic" k2="-1" k3="1"/>
<feColorMatrix type="matrix" values="0 0 0 0 1 0 0 0 0 1 0 0 0 0 1 0 0 0 0.5 0"/>
<feBlend mode="normal" in2="shape" result="effect1_innerShadow_2005_330"/>
</filter>
</defs>
</svg>
